Coordinates
version=1
nRows=16
nColumns=36
inDegrees=yes

Units are S.I. units (second, meters, Newtons, ...)
If the header above contains a line with 'inDegrees', this indicates whether rotational values are in degrees (yes) or radians (no).

endheader
time	pelvis_tilt	pelvis_list	pelvis_rotation	pelvis_tx	pelvis_ty	pelvis_tz	hip_flexion_r	hip_adduction_r	hip_rotation_r	knee_angle_r	knee_angle_r_beta	ankle_angle_r	subtalar_angle_r	mtp_angle_r	hip_flexion_l	hip_adduction_l	hip_rotation_l	knee_angle_l	knee_angle_l_beta	ankle_angle_l	subtalar_angle_l	mtp_angle_l	lumbar_extension	lumbar_bending	lumbar_rotation	arm_flex_r	arm_add_r	arm_rot_r	elbow_flex_r	pro_sup_r	arm_flex_l	arm_add_l	arm_rot_l	elbow_flex_l	pro_sup_l
      4.65000000	     -6.78345612	      1.32005540	     -4.36033491	      0.69914845	      1.15644285	      0.02854932	     13.05527470	     -0.30910340	    -24.65559317	      1.03557291	      0.01807416	    -42.05803769	     16.28398959	     -7.49999987	     13.96159740	     -1.62796962	    -33.81033024	      2.97169309	      0.05186583	    -35.64462072	     11.58032267	     -7.49999987	     -4.18745981	     -3.93283999	     -2.93863028	    -52.64685187	    -32.25961442	    -13.83612605	    133.71557946	     85.40303121	    -52.54607129	    -25.30491587	    -14.91796702	    124.89320480	     79.84918260
      4.66666670	     -6.95228557	      1.50010240	     -4.54120400	      0.70225956	      1.12325868	      0.02989414	     12.81382154	     -0.43896177	    -23.77551350	      1.01315793	      0.01768294	    -42.97197387	     16.26305593	     -7.49999987	     13.49905184	     -1.75831638	    -33.09424734	      3.49738143	      0.06104082	    -36.81484982	     10.49509061	     -7.49999987	     -3.77455929	     -4.23723365	     -3.02289671	    -53.56728971	    -32.37468391	    -11.99999145	    134.74625938	     83.77837125	    -54.55736269	    -25.90533799	    -13.00467694	    126.05001783	     78.70226679
      4.68333330	     -6.93705799	      1.85211658	     -5.12554369	      0.70419415	      1.08634503	      0.02934155	     12.55752787	     -0.79359401	    -23.27403274	      1.27548232	      0.02226137	    -43.65794639	     15.59574681	     -7.49999987	     12.73835692	     -1.68649151	    -31.33120680	      3.96834202	      0.06926063	    -37.78627971	      9.93391407	     -7.49999987	     -3.62363653	     -4.61293948	     -2.99097685	    -55.42278030	    -31.83072036	    -10.94602294	    136.41167425	     93.12007683	    -56.33354182	    -26.50850111	    -11.38297262	    126.99292329	     86.99176969
      4.70000000	     -6.92388535	      1.63005816	     -5.65215672	      0.70632282	      1.05312647	      0.02918271	     12.20433262	     -0.57437514	    -21.26064830	      2.26101170	      0.03946210	    -41.19263237	     14.35275773	     -7.49999987	     11.94315948	     -2.37604204	    -27.81760764	      4.91793759	      0.08583420	    -34.93308115	     10.12303937	     -7.49999987	     -3.49014037	     -4.40588214	     -2.94207029	    -55.63170220	    -32.06056429	     -9.08709891	    137.36254122	     90.76379800	    -57.39258782	    -26.67670157	     -9.15901671	    127.43559416	     85.19632002
      4.71666670	     -6.63180426	      1.13670547	     -5.47140250	      0.70690964	      1.02637249	      0.02583757	     11.89220946	     -0.68217654	    -17.41885063	      4.36241291	      0.07613847	    -33.82799551	     14.30986322	     -7.49999987	     11.56891872	     -3.03491239	    -22.92826274	      7.25226366	      0.12657588	    -26.97705758	      9.61486041	     -7.49999987	     -4.02007829	     -3.80345604	     -3.12193346	    -54.18106711	    -31.14439496	     -6.84140568	    136.25905221	     95.66787511	    -55.98688004	    -27.18932617	     -5.94461886	    125.72262466	     89.86819538
      4.73333330	     -6.13710305	      0.57358556	     -5.50970565	      0.70464379	      0.98919601	      0.02243052	     12.30935584	     -0.65683478	    -12.04298084	      8.06505121	      0.14076170	    -22.69431443	     12.26388082	     -7.49999987	     11.95946027	     -3.74758607	    -16.89828212	     10.32261371	      0.18016360	    -17.20099445	      7.48215142	     -7.49999987	     -5.08597617	     -3.12409784	     -3.62671371	    -51.30651955	    -30.64879432	     -4.52191237	    134.55861260	     96.09789882	    -54.03203311	    -26.60847829	     -3.46183896	    124.07525895	     91.33375923
      4.75000000	     -5.64344557	     -0.07567890	     -5.38762687	      0.69860144	      0.95644619	      0.01990763	     14.39770996	     -0.43509079	     -7.24769150	     13.83049706	      0.24138771	    -11.47011341	      7.22419518	     -7.49999987	     13.42387131	     -4.18861054	    -11.34420192	     15.16294011	      0.26464323	     -5.21160056	      2.49809662	     -7.49999987	     -6.66567718	     -2.25834037	     -4.00911252	    -46.46137422	    -30.23760753	     -1.44684479	    131.72063019	     92.83725989	    -50.15858310	    -26.52591721	     -0.45667984	    121.00611473	     88.63302819
      4.76666670	     -4.97847934	     -0.51986536	     -5.34889234	      0.69103896	      0.92881629	      0.01974804	     18.61080151	      0.33428370	     -1.10337093	     22.48105500	      0.39236843	      1.68188338	      2.84772532	     -7.49999987	     17.37222324	     -4.14862264	     -5.12346694	     23.78665591	      0.41515546	      6.20367648	     -5.91383333	     -7.49999987	     -8.85817955	     -1.85037671	     -5.19047024	    -39.78775548	    -29.89826664	      2.92344485	    127.91916610	     96.01088615	    -46.42790175	    -25.76862137	      0.96074337	    117.92218328	     91.31903930
      4.78333330	     -4.69890971	     -0.64778324	     -5.69278769	      0.68848533	      0.90634998	      0.01715424	     24.16734318	      1.40720703	      3.68473162	     33.25716137	      0.58044697	     13.55929800	     -1.83357996	     -7.49999987	     22.88462989	     -3.50913797	     -0.84119878	     34.61568354	      0.60415765	     16.49184008	    -12.11176764	     -7.49999987	    -10.55897756	     -1.42065566	     -5.66822691	    -33.77266334	    -28.30303714	      6.29044779	    123.34064131	     94.91560048	    -41.34494209	    -25.02569435	      3.13904511	    113.48021116	     91.00380176
      4.80000000	     -4.56313826	     -0.85076309	     -5.74098584	      0.68469197	      0.89438676	      0.01826824	     28.97513838	      2.89229598	      6.52303122	     42.31225439	      0.73848815	     21.41614680	     -3.51766343	     -7.49999987	     27.50206891	     -2.98312344	      2.15342041	     43.75773146	      0.76371649	     23.11300927	    -15.32349979	     -7.49999987	    -11.85171897	     -0.98863780	     -6.12275819	    -28.39592302	    -25.36939311	      8.77887503	    117.42211317	     94.73467221	    -35.43850162	    -24.55578759	      5.01803698	    108.26342753	     90.91343254
      4.81666670	     -4.27249202	     -1.07607590	     -5.76681483	      0.68339010	      0.87828598	      0.01583948	     32.60215922	      4.15839652	      7.45501554	     49.68596460	      0.86718367	     25.87423750	     -5.00110980	     -7.49999987	     31.20297079	     -2.48300511	      4.11424630	     51.21051928	      0.89379217	     27.33421810	    -16.82074808	     -7.49999987	    -12.89884610	     -0.43651505	     -6.64121887	    -23.15155243	    -22.13096348	     10.86159434	    111.31062684	     91.62065011	    -29.25523926	    -23.65037467	      6.68209349	    102.94646186	     88.12774861
      4.83333330	     -4.46120977	     -1.29773438	     -5.81614909	      0.68066437	      0.85917039	      0.01120649	     36.57268191	      4.97589886	      8.08128120	     55.99111781	      0.97722936	     28.53288779	     -4.43966193	     -7.49999987	     34.47037546	     -1.94037853	      5.22943575	     56.64314099	      0.98860931	     30.92160709	    -17.43694725	     -7.49999987	    -13.23176147	      0.33847787	     -7.00281005	    -18.52628120	    -19.14429154	     12.31250596	    106.69753054	     90.04259264	    -22.62594592	    -22.41341430	      8.66777247	     98.57706209	     86.68413261
      4.85000000	     -4.72142011	     -1.57732119	     -5.72433586	      0.68074549	      0.84757208	      0.00876821	     39.26265695	      5.45824738	      8.78668326	     60.04494820	      1.04798205	     29.36178820	     -3.27776060	     -7.49999987	     36.68529764	     -1.42102988	      6.70242664	     60.21497022	      1.05094949	     33.34144957	    -17.37040468	     -7.49999987	    -12.87242501	      1.33542708	     -7.37685256	    -14.60515075	    -16.63680653	     13.22545806	    104.05589346	     89.84610308	    -16.81312587	    -20.84423973	     10.31460006	     95.85952724	     86.52037235
      4.86666670	     -4.89421209	     -1.69787201	     -5.73073555	      0.67941337	      0.84281418	      0.00924794	     40.55386176	      5.79745953	      9.36667735	     61.70296696	      1.07691993	     29.33388530	     -3.50114882	     -7.49999987	     37.87028175	     -1.19298391	      7.28993554	     62.06226150	      1.08319080	     34.56243702	    -16.58592535	     -7.49999987	    -12.32139031	      2.02452306	     -5.73906768	    -13.29623974	    -13.85121320	     11.77242041	    104.57534589	     89.65635866	     -9.60408092	    -20.27754793	     15.05858615	     94.18083312	     85.85586111
      4.88333330	     -4.77185101	     -1.91993745	     -5.31599154	      0.67970820	      0.84661658	      0.01290465	     40.13340474	      6.11098111	      9.69046288	     61.28835309	      1.06968355	     27.78181684	     -3.76334882	     -7.49999987	     37.83409523	     -1.33268328	      7.92724924	     62.02867288	      1.08260457	     33.30087215	    -16.98685596	     -7.49999987	    -11.83009852	      2.40740493	     -6.31963399	    -10.49146862	    -11.62257102	     13.08350788	    105.04027325	     89.94086994	     -5.17683498	    -19.26861024	     16.06194996	     94.85511616	     85.92157278
      4.90000000	     -4.51649621	     -1.99115494	     -4.97456796	      0.67648365	      0.85124973	      0.01087764	     39.07963522	      6.17427001	      9.98564143	     59.97322927	      1.04673031	     26.00811925	     -5.83776426	     -7.49999987	     37.12667038	     -1.39747079	      7.84070040	     60.71002808	      1.05958988	     31.22886383	    -17.65294190	     -7.49999987	    -11.62014381	      2.56117496	     -5.71914132	     -8.85298736	     -9.35856882	     12.99841883	    107.34193424	     90.88171964	      0.04474847	    -18.36031669	     18.24966229	     95.79493752	     85.71389100
